<?xml version="1.0" encoding="utf-8"?>
<!-- Generator: Adobe Illustrator 15.1.0, SVG Export Plug-In  -->
<!DOCTYPE svg PUBLIC "-//W3C//DTD SVG 1.1//EN" "http://www.w3.org/Graphics/SVG/1.1/DTD/svg11.dtd" [
	<!ENTITY ns_flows "http://ns.adobe.com/Flows/1.0/">
]>
<svg version="1.1"
	 xmlns="http://www.w3.org/2000/svg" xmlns:xlink="http://www.w3.org/1999/xlink" xmlns:a="http://ns.adobe.com/AdobeSVGViewerExtensions/3.0/"
	 x="0px" y="0px" width="288px" height="288px" viewBox="-42.925 -5.422 288 288"
	 overflow="visible" enable-background="new -42.925 -5.422 288 288" xml:space="preserve">
<defs>
</defs>
<path d="M197.522,253.689c-4.211-11.963-20.621-34.017-27.855-45.476c-7.881-12.48-26.833-31.005-31.126-44.007
	c-6.228-23.827-1.987-67.42-3.221-99.819c-21.844-2.485-48.286-0.372-71.913-1.073c0.594,34.955-1.342,81.036-8.587,106.26
	l-0.161-0.002l-0.098,0.184h0.153C36.563,200.62,17.485,229.197,0.08,260.808c-0.939,6.272,6.038,20.396,38.639,20.396h0.625
	c1.63,0.02,3.109-0.002,4.294-0.002c42.556,0,87.402,2.154,130.946,1.073c13.524-2.11,27.804-10.831,23.613-25.761L197.522,253.689z
	 M67.7,67.608c21.108,0,42.218,0,63.326,0c0,19.32,0,38.64,0,57.96c-20.815-3.213-41.993-0.462-62.252,2.147
	C66.271,109.823,68.414,87.288,67.7,67.608z M181.049,276.046c-3.922,0.784-3.234,1.193-7.538,1.935
	c-49.917,1.252-104.242-4.154-151.34-2.146h-0.625c-6.574-0.839-18.616-8.854-17.173-16.1l10.733-18.246
	c14.605-23.32,29.862-45.987,42.933-70.84l0.167-0.437c3.354-9.526,10.308-25.505,9.493-39.278
	c20.452-0.409,46.158-4.188,63.326-1.073c0.729,10.814-2.004,25.091,3.15,31.479l7.26,14.299
	c10.343,19.05,25.78,35.586,36.817,52.968c3.763,5.926,5.148,8.218,9.289,14.861C198.198,256.514,189.678,273.104,181.049,276.046z"
	/>
<path fill-rule="evenodd" clip-rule="evenodd" d="M99.535,96.352c8.702-3.044,14.422,2.283,11.806,10.733
	C106.481,122.789,81.938,102.508,99.535,96.352z M99.535,108.158c4.769,0.476,7.987-0.6,7.512-5.367
	C103.989,94.853,93.262,103.354,99.535,108.158z"/>
<path fill-rule="evenodd" clip-rule="evenodd" d="M126.056,169.192c-2.627,3.796-13.066,2.309-16.101,0
	C111.696,164.721,123.815,167.143,126.056,169.192z"/>
<path fill-rule="evenodd" clip-rule="evenodd" d="M137.863,183.146c-5.823,3.617-21.431,2.708-27.907,2.146
	C113.663,179.048,131.471,180.155,137.863,183.146z"/>
<path fill-rule="evenodd" clip-rule="evenodd" d="M146.449,198.173c-5.938,6.314-25.288,4.645-35.419,3.22
	C117.959,195.479,135.671,196.937,146.449,198.173z"/>
<path fill-rule="evenodd" clip-rule="evenodd" d="M161.476,216.42c-10.361,6.504-36.587,2.7-50.446,2.146
	c-1.826,0.395-2.025-0.836-2.147-2.146C123.968,214.64,146.39,214.64,161.476,216.42z"/>
<path fill-rule="evenodd" clip-rule="evenodd" d="M85.021,0.188c23.378-3.106,21.343,33.253-0.94,30.078
	C68.865,28.099,66.916,2.594,85.021,0.188z M75.621,10.528c-6.847,23.731,29.266,18.671,22.559,0
	c-1.866-5.194-5.106-8.036-13.159-6.58C79.692,4.912,76.301,8.171,75.621,10.528z"/>
<path fill-rule="evenodd" clip-rule="evenodd" d="M111.338,22.747c15.292-2.918,19.426,20.084,6.58,23.499
	C101.612,50.58,94.486,25.963,111.338,22.747z M106.639,28.387c-4.136,4.616-0.629,11.102,2.819,14.099
	C133.979,42.61,116.141,17.779,106.639,28.387z"/>
<path fill-rule="evenodd" clip-rule="evenodd" d="M88.78,39.666c14.203-5.187,14.015,18.942,0,15.039
	C82.216,52.876,81.794,42.217,88.78,39.666z M89.72,50.945c6.476,1.201,7.915-5.14,4.7-8.459
	C87.01,41.353,85.728,47.918,89.72,50.945z"/>
<path fill-rule="evenodd" clip-rule="evenodd" fill="#FFFFFF" d="M89.72,50.945c-3.993-3.027-2.71-9.592,4.7-8.459"/>
</svg>
